<?xml version="1.0" encoding="UTF-8" standalone="no"?>
<svg width="120" height="40" viewBox="0 0 120 40" fill="none" xmlns="http://www.w3.org/2000/svg">
  <g fill="#FFFFFF">
    <!-- S -->
    <path d="M20 30c-2.8 0-5-0.8-6.6-2.3-1.6-1.5-2.4-3.6-2.4-6.2 0-2.6 0.8-4.6 2.4-6.1 1.6-1.5 3.8-2.3 6.6-2.3 1.8 0 3.4 0.3 4.8 0.9v3.2c-1.4-0.8-3-1.2-4.8-1.2-1.8 0-3.2 0.5-4.2 1.4-1 0.9-1.5 2.2-1.5 3.9 0 1.7 0.5 3 1.5 4 1 0.9 2.4 1.4 4.2 1.4 1.8 0 3.4-0.4 4.8-1.2v3.2c-1.4 0.6-3 0.9-4.8 0.9z"/>
    <!-- O -->
    <path d="M45 30c-2.8 0-5-0.8-6.6-2.3-1.6-1.5-2.4-3.6-2.4-6.2 0-2.6 0.8-4.6 2.4-6.1 1.6-1.5 3.8-2.3 6.6-2.3s5 0.8 6.6 2.3c1.6 1.5 2.4 3.6 2.4 6.1 0 2.6-0.8 4.6-2.4 6.2C50 29.2 47.8 30 45 30zm0-3c1.8 0 3.2-0.5 4.2-1.4 1-0.9 1.5-2.2 1.5-3.9 0-1.7-0.5-3-1.5-4-1-0.9-2.4-1.4-4.2-1.4s-3.2 0.5-4.2 1.4c-1 0.9-1.5 2.2-1.5 4 0 1.7 0.5 3 1.5 3.9 1 0.9 2.4 1.4 4.2 1.4z"/>
    <!-- L -->
    <path d="M70 30V13.4h3.6v13.8h7.2v2.8H70z"/>
    <!-- O -->
    <path d="M95 30c-2.8 0-5-0.8-6.6-2.3-1.6-1.5-2.4-3.6-2.4-6.2 0-2.6 0.8-4.6 2.4-6.1 1.6-1.5 3.8-2.3 6.6-2.3s5 0.8 6.6 2.3c1.6 1.5 2.4 3.6 2.4 6.1 0 2.6-0.8 4.6-2.4 6.2C100 29.2 97.8 30 95 30zm0-3c1.8 0 3.2-0.5 4.2-1.4 1-0.9 1.5-2.2 1.5-3.9 0-1.7-0.5-3-1.5-4-1-0.9-2.4-1.4-4.2-1.4s-3.2 0.5-4.2 1.4c-1 0.9-1.5 2.2-1.5 4 0 1.7 0.5 3 1.5 3.9 1 0.9 2.4 1.4 4.2 1.4z"/>
  </g>
</svg>