<?xml version="1.0" encoding="UTF-8" standalone="no"?>
<svg width="120" height="40" viewBox="0 0 120 40" fill="none" xmlns="http://www.w3.org/2000/svg">
  <path d="M25.5 30.5c-2.3 0-4.2-.6-5.7-1.8-1.5-1.2-2.3-2.9-2.3-5.2 0-2.2.8-4 2.3-5.2 1.5-1.2 3.4-1.8 5.7-1.8 1.4 0 2.7.2 3.8.7 1.1.5 2 1.1 2.6 2l-2.4 2.2c-.9-1.1-2.2-1.7-3.9-1.7-1.4 0-2.5.4-3.3 1.1-.8.7-1.2 1.7-1.2 3 0 1.3.4 2.3 1.2 3 .8.7 1.9 1.1 3.3 1.1 1.7 0 3-.6 3.9-1.7l2.4 2.2c-.6.8-1.5 1.5-2.6 2-1.1.5-2.4.7-3.8.7zM45.8 30.5c-2.3 0-4.2-.6-5.7-1.8-1.5-1.2-2.3-2.9-2.3-5.2 0-2.2.8-4 2.3-5.2 1.5-1.2 3.4-1.8 5.7-1.8 2.3 0 4.2.6 5.7 1.8 1.5 1.2 2.3 2.9 2.3 5.2 0 2.2-.8 4-2.3 5.2-1.5 1.2-3.4 1.8-5.7 1.8zm0-3.2c1.4 0 2.5-.4 3.3-1.1.8-.7 1.2-1.7 1.2-3s-.4-2.3-1.2-3c-.8-.7-1.9-1.1-3.3-1.1-1.4 0-2.5.4-3.3 1.1-.8.7-1.2 1.7-1.2 3s.4 2.3 1.2 3c.8.7 1.9 1.1 3.3 1.1zM66.1 30.5c-2.3 0-4.2-.6-5.7-1.8-1.5-1.2-2.3-2.9-2.3-5.2 0-2.2.8-4 2.3-5.2 1.5-1.2 3.4-1.8 5.7-1.8 1.4 0 2.7.2 3.8.7 1.1.5 2 1.1 2.6 2l-2.4 2.2c-.9-1.1-2.2-1.7-3.9-1.7-1.4 0-2.5.4-3.3 1.1-.8.7-1.2 1.7-1.2 3 0 1.3.4 2.3 1.2 3 .8.7 1.9 1.1 3.3 1.1 1.7 0 3-.6 3.9-1.7l2.4 2.2c-.6.8-1.5 1.5-2.6 2-1.1.5-2.4.7-3.8.7zM86.4 30.5c-2.3 0-4.2-.6-5.7-1.8-1.5-1.2-2.3-2.9-2.3-5.2 0-2.2.8-4 2.3-5.2 1.5-1.2 3.4-1.8 5.7-1.8 2.3 0 4.2.6 5.7 1.8 1.5 1.2 2.3 2.9 2.3 5.2 0 2.2-.8 4-2.3 5.2-1.5 1.2-3.4 1.8-5.7 1.8zm0-3.2c1.4 0 2.5-.4 3.3-1.1.8-.7 1.2-1.7 1.2-3s-.4-2.3-1.2-3c-.8-.7-1.9-1.1-3.3-1.1-1.4 0-2.5.4-3.3 1.1-.8.7-1.2 1.7-1.2 3s.4 2.3 1.2 3c.8.7 1.9 1.1 3.3 1.1z" fill="#FFFFFF"/>
</svg>